# xmcd
#
# Track frame offsets:
#	150
#	13602
#	28561
#	42693
#
# Disc length: 775 seconds
#
# Revision: 0
# Processed by: cddbd v1.5.2PL0 Copyright (c) Steve Scherf et al.
# Submitted via: audiograbber 1.83.01
#
DISCID=2b030504
DTITLE=chorale Ellada - Le Haillan
DYEAR=2008
DGENRE=laîka
TTITLE0=chorale - ella1
TTITLE1=chorale - ellada2
TTITLE2=chorale - ellada3
TTITLE3=chorale - ellada4
EXTD=
EXTT0=
EXTT1=
EXTT2=
EXTT3=
PLAYORDER=
